<svg xmlns="http://www.w3.org/2000/svg" width="1200" height="1675" viewBox="0 0 1200 1675">
  <defs>
    <filter id="softShadow" x="-20%" y="-20%" width="140%" height="140%">
      <feDropShadow dx="0" dy="12" stdDeviation="20" flood-color="#000" flood-opacity="0.08"/>
    </filter>
  </defs>
  <rect width="1200" height="1675" fill="#eef2f6"/>
  <rect x="32" y="32" width="1136" height="1611" rx="20" fill="#ffffff" filter="url(#softShadow)"/>

  <text x="360" y="120" font-family="Georgia, serif" font-size="42" font-weight="700" fill="#111">Certificate of Analysis</text>

  <g transform="translate(80,420)">
    <rect x="0" y="0" width="1040" height="110" rx="10" fill="#f8fafc" stroke="#d1d5db"/>
    <text x="24" y="38" font-family="Arial" font-size="15" font-weight="700" fill="#1f2937">Product:</text>
    <text x="160" y="38" font-family="Arial" font-size="15" fill="#111827">GHK-Cu 50mg</text>
    <text x="24" y="70" font-family="Arial" font-size="15" font-weight="700" fill="#1f2937">Net Peptide Content:</text>
    <text x="240" y="70" font-family="Arial" font-size="15" fill="#111827">50 mg</text>
    <text x="24" y="102" font-family="Arial" font-size="15" font-weight="700" fill="#1f2937">Identity:</text>
    <text x="140" y="102" font-family="Arial" font-size="15" fill="#111827">GHK-Cu</text>
  </g>

  <g transform="translate(640,420)">
    <rect x="0" y="0" width="440" height="110" rx="10" fill="#eef2f7" stroke="#bfdbf7"/>
    <text x="24" y="36" font-family="Arial" font-size="15" font-weight="700" fill="#1f2937">Lot</text>
    <text x="154" y="36" font-family="Arial" font-size="15" fill="#111827">GHK50-2026-01</text>
    <text x="24" y="68" font-family="Arial" font-size="15" font-weight="700" fill="#1f2937">Purity</text>
    <text x="154" y="68" font-family="Arial" font-size="15" fill="#111827">98.50%</text>
    <text x="24" y="100" font-family="Arial" font-size="15" font-weight="700" fill="#1f2937">Appearance</text>
    <text x="154" y="100" font-family="Arial" font-size="15" fill="#111827">White Powder</text>
  </g>

  <g transform="translate(80,560)">
    <rect x="0" y="0" width="1040" height="48" rx="8" fill="#fde2e2" stroke="#f5c2c7"/>
    <text x="520" y="32" font-family="Georgia, serif" font-size="16" font-weight="700" text-anchor="middle" fill="#991b1b">All Chemical Analysis was performed by HPLC with UV Detection Coupled with Mass Spectrometry</text>
  </g>

  <g transform="translate(80,630)">
    <rect x="0" y="0" width="1040" height="94" rx="8" fill="#eaf5ff" stroke="#dbeafe"/>
    <text x="24" y="32" font-family="Arial" font-size="15" font-weight="700" fill="#1f2937">Mass Identification</text>
    <text x="24" y="64" font-family="Arial" font-size="30" font-weight="700" fill="#0f172a">GHK-Cu</text>
  </g>

  <g transform="translate(80,742)">
    <rect x="0" y="0" width="1040" height="330" rx="10" fill="#ffffff" stroke="#d1d5db"/>
    <path d="M40 92 C180 40 360 90 520 94 C660 98 740 152 860 150 C930 148 980 70 1040 78" fill="none" stroke="#0f172a" stroke-width="3"/>
    <text x="520" y="270" font-family="Arial" font-size="16" fill="#7f8c8d" text-anchor="middle">HPLC chromatogram</text>
  </g>

  <g transform="translate(80,1090)">
    <rect x="0" y="0" width="620" height="330" rx="10" fill="#ffffff" stroke="#d1d5db"/>
    <rect x="28" y="24" width="264" height="266" rx="8" fill="#f8fafc" stroke="#d1d5db"/>
    <image x="28" y="24" width="264" height="266" href="./GHK-Cu-50-mg-2-v2.jpeg" preserveAspectRatio="xMidYMid slice" />
    <rect x="324" y="24" width="264" height="266" rx="8" fill="#f8fafc" stroke="#d1d5db"/>
    <image x="324" y="24" width="264" height="266" href="./GHK-Cu-50-mg-2-v2.jpeg" preserveAspectRatio="xMidYMid slice" />
    <rect x="612" y="24" width="380" height="266" rx="8" fill="#f8fafc" stroke="#d1d5db"/>
    <text x="802" y="160" font-family="Arial" font-size="18" fill="#9ca3af" text-anchor="middle">Mass Spectrum</text>
  </g>

  <g transform="translate(80,1438)">
    <rect x="0" y="0" width="1040" height="140" rx="14" fill="#f6e4e8" stroke="#f0c7cd"/>
    <text x="24" y="40" font-family="Georgia, serif" font-size="24" font-weight="700" fill="#9b2c2c">Mariana Lopez</text>
    <text x="24" y="68" font-family="Arial" font-size="14" fill="#1f2937">Principle Chemist</text>
    <text x="24" y="92" font-family="Arial" font-size="12" fill="#475569">Searchable via: FreedomDiagnostics.testsite.com • Contact at: Admin@FreedomDiagnostics.net</text>
  </g>
</svg>