<svg xmlns="http://www.w3.org/2000/svg" width="1200" height="1700" viewBox="0 0 1200 1700">
  <rect width="100%" height="100%" fill="#ffffff"/>
  <rect x="40" y="40" width="1120" height="1620" rx="12" fill="#fafafa" stroke="#e6e6e6"/>
  <text x="600" y="140" font-family="Georgia, serif" font-size="36" font-weight="700" text-anchor="middle" fill="#000">Certificate of Analysis</text>
  <text x="600" y="190" font-family="Arial" font-size="16" fill="#555" text-anchor="middle">Freedom Diagnostics — Independent Laboratory Report</text>

  <g transform="translate(80,240)">
    <rect width="1040" height="220" rx="6" fill="#fff" stroke="#dfe7ef"/>
    <text x="20" y="40" font-family="Arial" font-size="16" fill="#333">Product:</text>
    <text x="180" y="40" font-family="Arial" font-size="18" font-weight="700" fill="#004AAD">Retatrutide 10mg</text>

    <text x="20" y="78" font-family="Arial" font-size="16" fill="#333">Lot:</text>
    <text x="180" y="78" font-family="Arial" font-size="16" fill="#111">RT-RET-10-004</text>

    <text x="20" y="116" font-family="Arial" font-size="16" fill="#333">Purity:</text>
    <text x="180" y="116" font-family="Arial" font-size="16" font-weight="700" fill="#111">98.92%</text>

    <text x="20" y="154" font-family="Arial" font-size="16" fill="#333">Appearance:</text>
    <text x="180" y="154" font-family="Arial" font-size="16" fill="#111">White to Off-white Powder</text>
  </g>

  <g transform="translate(80,480)">
    <rect width="1040" height="520" rx="8" fill="#fff" stroke="#f0f0f0"/>
    <text x="20" y="34" font-family="Arial" font-size="14" fill="#333">Mass Identification (HPLC / LC-MS)</text>
    <line x1="20" y1="48" x2="1020" y2="48" stroke="#eee" stroke-width="1"/>
    <rect x="20" y="70" width="500" height="380" rx="6" fill="#fafafa" stroke="#eee"/>
    <text x="270" y="270" font-family="Arial" font-size="20" fill="#999" text-anchor="middle">[HPLC chromatogram]</text>
    <rect x="560" y="70" width="480" height="240" rx="6" fill="#fafafa" stroke="#eee"/>
    <text x="800" y="190" font-family="Arial" font-size="20" fill="#999" text-anchor="middle">[Mass Spectrum]</text>

    <image x="20" y="320" width="180" height="160" href="./retatrutide_10mg_vial.jpeg" />
  </g>

  <g transform="translate(80,1020)">
    <rect width="1040" height="140" rx="8" fill="#eafaf1" stroke="#cdebd9" />
    <text x="520" y="86" font-family="Georgia, serif" font-size="16" fill="#0b6b2e" text-anchor="middle">All chemical analyses were performed by HPLC with UV detection coupled with mass spectrometry</text>
  </g>

  <g transform="translate(80,1180)">
    <rect width="520" height="120" rx="6" fill="#fff" stroke="#e6e6e6"/>
    <text x="20" y="36" font-family="Arial" font-size="14" fill="#333">Analyst:</text>
    <text x="20" y="68" font-family="Georgia, serif" font-size="20" font-weight="700" fill="#b33333">Mariana Lopez</text>
    <text x="20" y="98" font-family="Arial" font-size="12" fill="#777">Principle Chemist — Freedom Diagnostics</text>
  </g>

  <g transform="translate(680,1180)">
    <rect width="440" height="120" rx="6" fill="#fff" stroke="#e6e6e6"/>
    <text x="220" y="36" font-family="Arial" font-size="12" fill="#333" text-anchor="middle">Certificate ID</text>
    <text x="220" y="70" font-family="Arial" font-size="20" font-weight="700" fill="#004AAD" text-anchor="middle">COA: RT-RET-10-004</text>
  </g>

  <!-- Verified stamp -->
  <g transform="translate(820,260) rotate(20)">
    <text x="120" y="10" font-family="Georgia, serif" font-size="36" fill="rgba(0,0,0,0.06)" font-weight="800" text-anchor="middle">Factor Peptides</text>
  </g>

  <g transform="translate(860,320)">
    <circle cx="0" cy="0" r="62" fill="none" stroke="#cfcfcf" />
    <text x="0" y="8" font-family="Georgia, serif" font-size="18" fill="#2b6cb0" font-weight="700" text-anchor="middle">VERIFIED</text>
  </g>

  <text x="600" y="1630" font-family="Arial" font-size="12" fill="#888" text-anchor="middle">Issued: 2026-06-12 • Freedom Diagnostics</text>
</svg>